<svg width="48" height="53" viewBox="0 0 48 53" fill="none" xmlns="http://www.w3.org/2000/svg">
<path d="M21.58 22.1624C20.7547 22.6246 20.0893 23.3138 19.6678 24.1429C19.2463 24.972 19.0877 25.9037 19.2121 26.8203C19.3365 27.7368 19.7383 28.597 20.3666 29.292C20.995 29.987 21.8216 30.4856 22.7421 30.7249C23.6626 30.9641 24.6355 30.9332 25.5379 30.636C26.4402 30.3388 27.2315 29.7888 27.8116 29.0553C28.3917 28.3219 28.7345 27.4381 28.7968 26.5156C28.8591 25.5932 28.638 24.6735 28.1615 23.873C27.5225 22.7995 26.4701 22.0163 25.2359 21.6955C24.0017 21.3747 22.6866 21.5427 21.58 22.1624ZM43.1751 27.2335C42.8588 26.8828 42.5251 26.5312 42.1738 26.1786C42.4192 25.9284 42.6566 25.6785 42.886 25.4288C47.2183 20.7069 49.0467 15.9714 47.3525 13.1244C45.7279 10.3948 40.8955 9.58132 34.8456 10.7225C34.2497 10.8356 33.6571 10.9631 33.0678 11.1052C32.955 10.7279 32.835 10.3528 32.7078 9.97983C30.6554 3.98005 27.3401 0.0774011 23.9515 0.0794686C20.7023 0.080908 17.5618 3.73579 15.5585 9.3898C15.3614 9.94758 15.179 10.51 15.0115 11.0771C14.6174 10.9833 14.2218 10.8967 13.8244 10.8172C7.44141 9.54586 2.30028 10.3832 0.609372 13.2317C-1.01201 15.9634 0.683644 20.4283 4.733 24.9357C5.1346 25.3817 5.54756 25.8177 5.97189 26.2436C5.47166 26.7435 4.99798 27.2431 4.55648 27.7398C0.605272 32.1837 -0.993423 36.5756 0.625343 39.2954C2.29715 42.1048 7.36593 43.0231 13.5354 41.8454C14.0354 41.7493 14.5327 41.6411 15.0271 41.5209C15.2082 42.1343 15.4069 42.7423 15.6232 43.345C17.6177 48.8856 20.7405 52.4228 23.9783 52.4216C27.3221 52.4197 30.6741 48.6193 32.705 42.8463C32.8654 42.3901 33.0172 41.9163 33.1611 41.4285C33.7999 41.5826 34.4427 41.7194 35.0897 41.8389C41.0339 42.9299 45.7528 42.0718 47.3686 39.35C49.0372 36.5385 47.3168 31.8231 43.1751 27.2335ZM2.6068 14.3475C3.64778 12.594 7.84929 11.9099 13.3605 13.0075C13.7127 13.0778 14.071 13.1563 14.4352 13.2431C13.8972 15.552 13.5175 17.8931 13.2988 20.2508C11.3102 21.6079 9.41428 23.0884 7.62287 24.6831C7.22818 24.2871 6.84403 23.8816 6.47042 23.4664C3.00085 19.6044 1.62968 15.9936 2.6068 14.3475ZM13.0923 29.3385C11.7149 28.3267 10.4348 27.2902 9.27296 26.2477C10.434 25.2116 11.7149 24.1786 13.0895 23.1696C13.0401 24.1975 13.0156 25.2262 13.016 26.2557C13.0168 27.2836 13.0422 28.3112 13.0923 29.3385ZM13.0906 39.6514C10.7523 40.1558 8.33832 40.2384 5.96919 39.8952C5.31974 39.8461 4.68755 39.6684 4.1117 39.373C3.53585 39.0775 3.02857 38.6707 2.62121 38.1776C1.63902 36.527 2.92272 33.0009 6.30189 29.2003C6.72672 28.724 7.16548 28.2601 7.61817 27.8087C9.40986 29.4117 11.3089 30.8981 13.3028 32.2579C13.5245 34.6458 13.9087 37.0168 14.4526 39.3555C14.0012 39.465 13.5472 39.5637 13.0906 39.6514ZM32.2481 18.6116C31.3433 18.0585 30.4273 17.5232 29.5001 17.0056C28.5877 16.4962 27.6643 16.0058 26.73 15.5346C28.3298 14.8821 29.9024 14.3248 31.4205 13.8707C31.7784 15.4365 32.0546 17.0188 32.2481 18.6116ZM17.7383 10.1166C19.4547 5.27198 21.9944 2.31625 23.9528 2.31544C26.0384 2.31447 28.7482 5.50375 30.5201 10.684C30.6352 11.0217 30.744 11.3612 30.8466 11.7027C28.5187 12.4032 26.2411 13.2523 24.0288 14.2445C21.8256 13.2406 19.5552 12.382 17.233 11.6746C17.3882 11.1514 17.5567 10.632 17.7383 10.1166ZM16.6582 13.8428C18.2417 14.3264 19.7992 14.8872 21.3245 15.523C19.4345 16.4691 17.5934 17.4998 15.8011 18.6148C16.0176 16.9451 16.3058 15.3454 16.6582 13.8428ZM15.8051 33.8916C16.6988 34.4466 17.6057 34.9811 18.5256 35.4951C19.464 36.0192 20.4148 36.5213 21.3782 37.0014C19.8412 37.6592 18.2704 38.24 16.672 38.7416C16.3155 37.2182 16.0242 35.5904 15.8051 33.8916ZM30.5235 42.1237C29.8057 44.3407 28.6735 46.4106 27.1833 48.23C26.8151 48.7512 26.3404 49.1937 25.789 49.53C25.2375 49.8662 24.6209 50.0892 23.9771 50.1852C22.0125 50.1863 19.505 47.3456 17.7993 42.6075C17.5984 42.0473 17.4136 41.482 17.2449 40.9116C19.5782 40.1814 21.8579 39.2985 24.0681 38.2691C26.2986 39.2677 28.5943 40.1232 30.9404 40.83C30.8123 41.2644 30.6733 41.6956 30.5235 42.1237ZM31.5007 38.6581C29.9651 38.1975 28.3697 37.6308 26.7468 36.9687C27.6617 36.5016 28.5832 36.0084 29.5113 35.4889C30.4637 34.9554 31.3919 34.4085 32.2957 33.8483C32.1157 35.4637 31.8503 37.069 31.5007 38.6581ZM32.7047 26.246C32.7067 27.8354 32.6556 29.4235 32.5513 31.0103C31.2221 31.8829 29.8189 32.7349 28.3589 33.5526C26.9049 34.3669 25.4643 35.1153 24.0512 35.7926C22.5641 35.1012 21.1057 34.3562 19.676 33.5576C18.2543 32.7637 16.8652 31.9184 15.5087 31.0216C15.3847 29.4353 15.3223 27.8461 15.3213 26.254C15.3202 24.663 15.3816 23.0742 15.505 21.4865C16.8338 20.6062 18.2268 19.7549 19.6671 18.9482C21.114 18.1377 22.5726 17.3925 24.0232 16.7172C25.492 17.4096 26.9342 18.1517 28.35 18.9434C29.7707 19.7355 31.1637 20.5718 32.5289 21.4524C32.6462 23.0478 32.7046 24.6457 32.7047 26.246ZM35.2858 12.9175C40.4692 11.9395 44.3774 12.5974 45.3565 14.2424C46.3995 15.9948 44.9047 19.8652 41.1645 23.9423C40.9579 24.1672 40.7433 24.3932 40.5212 24.62C38.6988 23.022 36.7663 21.5461 34.7372 20.2027C34.5324 17.8708 34.167 15.5548 33.6433 13.2702C34.2015 13.137 34.749 13.0195 35.2858 12.9175ZM34.9354 23.0842C36.3041 24.0536 37.62 25.0912 38.8779 26.1929C37.6256 27.3127 36.3138 28.3682 34.9479 29.3552C34.9897 28.3189 35.0103 27.2822 35.0097 26.2449C35.0092 25.1911 34.9844 24.1375 34.9354 23.0842ZM45.3708 38.234C44.3903 39.8858 40.6014 40.5746 35.5178 39.6415C34.9352 39.5349 34.3375 39.4079 33.7245 39.2606C34.2355 36.9466 34.5847 34.6018 34.7698 32.2421C36.7955 30.8753 38.7218 29.3749 40.5352 27.7515C40.8525 28.0713 41.1543 28.3896 41.4407 28.7064C43.0622 30.4168 44.3454 32.402 45.2259 34.5631C45.5075 35.1328 45.6656 35.7526 45.6906 36.384C45.7155 37.0153 45.6067 37.645 45.3708 38.234Z" fill="white"/>
</svg>
